<svg version="1.2" xmlns="http://www.w3.org/2000/svg" width="960" height="176">
  <style>
    .s0,.s1{fill:#fff;stroke:#000;stroke-miterlimit:100;stroke-width:11}.s1{fill:#000;stroke-width:0}
  </style>
  <g id="dice">
    <path id="Shape 1 copy 3" class="s0" d="M76 27c0-11 9-20 20-20h122c11 0 20 9 20 20v122c0 11-9 20-20 20H96c-11 0-20-9-20-20zm0 0c0-11 9-20 20-20h122c11 0 20 9 20 20v122c0 11-9 20-20 20H96c-11 0-20-9-20-20z"/>
    <path id="Shape 1 copy 4" class="s0" d="M43 27c0-11 9-20 20-20h122c11 0 20 9 20 20v122c0 11-9 20-20 20H63c-11 0-20-9-20-20zm0 0c0-11 9-20 20-20h122c11 0 20 9 20 20v122c0 11-9 20-20 20H63c-11 0-20-9-20-20z"/>
    <path id="Shape 1 copy 2" class="s0" d="M6 27C6 16 15 7 26 7h122c11 0 20 9 20 20v122c0 11-9 20-20 20H26c-11 0-20-9-20-20zm0 0C6 16 15 7 26 7h122c11 0 20 9 20 20v122c0 11-9 20-20 20H26c-11 0-20-9-20-20z"/>
    <path id="Shape 2 copy" class="s1" d="M51.6 73.3a17.6 17.6 0 1 1 0-35.3 17.6 17.6 0 0 1 0 35.3z"/>
    <path id="Shape 2 copy 2" class="s1" d="M51.6 73.3a17.6 17.6 0 1 1 0-35.3 17.6 17.6 0 0 1 0 35.3z"/>
    <path id="Shape 2 copy 6" class="s1" d="M86.1 107.8c-9.8 0-17.6-7.9-17.6-17.7 0-9.8 7.8-17.6 17.6-17.6s17.7 7.8 17.7 17.6-7.9 17.7-17.7 17.7z"/>
    <path id="Shape 2 copy 3" class="s1" d="M120.6 142.2a17.6 17.6 0 1 1-.1-35.3 17.6 17.6 0 0 1 .1 35.3z"/>
    <path id="Shape 2 copy 4" class="s1" d="M51.6 142.2a17.6 17.6 0 1 1 0-35.3 17.6 17.6 0 0 1 0 35.3z"/>
    <path id="Shape 2 copy 5" class="s1" d="M120.6 73.3a17.7 17.7 0 1 1 0-35.3 17.7 17.7 0 0 1 0 35.3z"/>
  </g>
  <path id="DiceSlice" aria-label="DiceSlice" d="M333.6 153h-53.1v-15.1l6.2-.6q5.4-.6 5.4-5.2v-87l-10.7-.6V28.6h51.3q27.5 0 42.8 14.6Q391 57.8 391 86.4q0 17.8-4.7 31.1-4.6 13.1-12.7 20.5-16.1 15-40 15zm-2-106.2h-16.7V135H334q16.1 0 25-11.5 9-11.6 9-33.7 0-43-36.4-43zm66.7 12.1h33.5v78.6l10.6.5v15h-44.5v-14.2l6.2-.6q5.4-.5 5.4-6V80.3q0-3.2-1.1-4.3-.9-1.2-3.5-1.2l-6.6-.3zm9.9-16.1q-3.9-3.9-3.9-9.9t3.9-9.9q3.9-4.2 10.3-4.2t10.3 4.2q4.1 3.9 4.1 9.9t-4.1 9.9q-3.9 3.7-10.3 3.7t-10.3-3.7zm61 62.1q0 15.9 6 24.6 6 8.8 17.2 8.8 11.4 0 22.4-8l8.1 14.4q-13.3 10.8-33.3 10.8-20 0-31.6-12.5-11.4-12.7-11.4-37.4t13-37q13.3-12.5 29.8-12.5 16.6 0 30.8 7.6V88L503 89.3v-8.9q0-5.1-3.7-6.2-3.6-1.3-7.5-1.3-22.6 0-22.6 32zm105.6-48.8q14.1 0 22.3 6.9 8.2 6.7 8.2 19 0 8.3-3.5 14.6-3.6 6.2-8.8 9.8-5.3 3.5-12.7 5.8-12.6 3.7-28.3 3.7.6 9.9 6.2 16.1 5.6 6 17.2 6t23.2-8.3l7.1 15.2q-3.7 3.3-12.7 6.9-8.8 3.6-20.2 3.6-22.8 0-33.5-12.6-10.6-12.7-10.6-34.8 0-22 12.1-37 12.2-14.9 34-14.9zm-8.6 42.8q7-1.3 12.8-5.4 5.8-4.3 5.8-10.1 0-11.5-11.3-11.5-10.4 0-16.1 8.5-5.6 8.2-6.1 19.8 8.2-.2 14.9-1.3z" style="fill:#fff"/>
  <path aria-label="DiceSlice" d="M650.6 136.2q22.4 0 22.4-18 0-9.3-9.9-13.8-5.2-2.6-13.6-4.9-8.3-2.2-13.9-4.5-5.4-2.4-11-6.5-11.1-8.2-11.1-25.3 0-17.2 11.8-26.9 12-9.9 31.1-9.9 19.2 0 35.7 7.7v28L673 63.4V52.6q0-2.8-.7-4.1-2.1-3.6-13.3-3.6-11 0-16.5 3.9-5.2 4-5.2 12.2 0 6 4.5 10.5 3 3 8.8 5l12.5 3.9q6.7 2.1 11.8 4.5 5.2 2.5 10.8 6.8 11.4 8.4 11.4 26 0 17.5-12.7 27.6-12.5 10.1-33.3 10.1-20.5 0-37-7.6v-29.6l19.1-1.3v11.4q0 2.8.7 4.1.8 1.3 4.5 2.6 3.9 1.2 12.2 1.2zm52-116.5H736v117.8l10.7.5v15h-44.5v-14.2l6.2-.6q5.4-.5 5.4-6V40.1q0-4.2-4.7-4.5l-6.5-.4zM751.9 59h33.5v78.5l10.7.6V153h-44.5v-14.2l6.1-.6q5.4-.5 5.4-5.9v-52q0-3.2-1.1-4.3-.9-1.1-3.5-1.1l-6.6-.4zm9.9-16.1q-3.9-3.9-3.9-9.9t3.9-9.9q4-4.1 10.3-4.1 6.4 0 10.3 4.1 4.1 3.9 4.1 9.9t-4.1 9.9q-3.9 3.7-10.3 3.7-6.3 0-10.3-3.7zm61 62.1q0 15.9 6 24.7 6 8.8 17.2 8.8 11.4 0 22.4-8.1l8.1 14.4q-13.3 10.9-33.3 10.9-20 0-31.6-12.6-11.4-12.7-11.4-37.4t13.1-37q13.2-12.5 29.7-12.5 16.6 0 30.9 7.6v24.4l-17.3 1.3v-9q0-5.1-3.7-6.2-3.5-1.3-7.5-1.3-22.6 0-22.6 32zm105.7-48.8q14 0 22.2 6.9 8.2 6.7 8.2 19.1 0 8.2-3.5 14.6-3.6 6.1-8.8 9.7-5.2 3.5-12.7 5.8-12.5 3.7-28.3 3.7.6 9.9 6.2 16.1 5.6 6 17.2 6t23.2-8.2l7.1 15.1q-3.7 3.4-12.7 6.9-8.8 3.6-20.2 3.6-22.8 0-33.5-12.6-10.6-12.7-10.6-34.7 0-22.1 12.1-37.1 12.2-14.9 34.1-14.9zM919.9 99q6.9-1.3 12.7-5.4 5.8-4.3 5.8-10.1 0-11.4-11.3-11.4-10.4 0-16 8.4-5.6 8.2-6.2 19.8 8.2-.2 15-1.3z" style="fill:#fff"/>
</svg>
